<svg width="202" height="59" viewBox="0 0 202 59" fill="none" xmlns="http://www.w3.org/2000/svg"><g clip-path="url(#a)"><path d="M59.8825 23.8063c-1.724-4.0971-4.5004-7.6745-8.0525-10.3758-3.5522-2.7012-7.756-4.432-12.1926-5.0196a25.8033 25.8033 0 0 0-13.0933 1.6702c-4.1424 1.682-7.7679 4.4114-10.5154 7.9162-2.7475 3.5048-4.521 7.6626-5.1437 12.0591a25.2121 25.2121 0 0 0 1.5945 12.9981c1.6675 4.12 4.3945 7.7347 7.9092 10.4837 3.5147 2.749 7.6943 4.5364 12.1224 5.1841-.58-2.0732-1.17-4.3645-1.69-6.7948a32.4102 32.4102 0 0 0 4.7602 2.5295s.12 2.1425.28 4.5331a25.6852 25.6852 0 0 0 5.3303-.4662 2.1035 2.1035 0 0 1 0-.7539c.29-1.8549 1.09-5.1977 1.25-7.3502a15.1137 15.1137 0 0 0 2.9002-3.6801l-.06.4365c-.5501 4.2256-1.7001 8.7389-2.4001 9.9887a5.5361 5.5361 0 0 1-.8301 1.1407c3.62-.8423 7.012-2.4554 9.9408-4.7275 2.9288-2.2722 5.3244-5.1489 7.0206-8.4308a25.2717 25.2717 0 0 0 2.8028-10.5756 25.2516 25.2516 0 0 0-1.9333-10.7654Zm-1.4701 3.7594c-.44.4266-1.35.7142-1.5001-.5753-.15-1.2895-.19-2.1921-.19-2.1921s-1.9301-3.4024-2.6501-3.442c-.72-.0397-5.8303 3.442-7.1804 4.9596-1.17 1.2796-1.4 1.1903-1.4 3.442 0 1.6962.22 8.1041.1 13.0042l-8.1504 2.1525a64.4516 64.4516 0 0 1-7.8004 1.7061l-1.0001-5.7829h-.14L25.9308 27.774s-3.8102-1.4283-5.2102-1.8152a3.7885 3.7885 0 0 0-2.0922-.2673 3.7736 3.7736 0 0 0-1.908.8922 5.0324 5.0324 0 0 0-1.2848 1.7224 4.9953 4.9953 0 0 0-.4453 2.0966 7.041 7.041 0 0 1 .48 1.4383c.05.4761-1.2001.4265-2.0001.4265-.8 0-.92-1.4284-.29-3.1048a22.5439 22.5439 0 0 1 1.8201-3.7098 11.7763 11.7763 0 0 1 2.0701-2.8667s.14-.3372 1.25-.238c1.1101.0992 7.2804.4265 7.2804.4265l.05-2.2517a143.9299 143.9299 0 0 1 20.241-1.3292v1.8153a22.6715 22.6715 0 0 1 8.1404-1.9839.9162.9162 0 0 1 .4342.0971.9071.9071 0 0 1 .3358.2898c.3401.4265 2.4102 2.9758 2.6502 3.3428a27.7303 27.7303 0 0 1 1.8301 2.9758 6.1671 6.1671 0 0 1-.8701 1.8251v.0099Z" fill="#FDC305"/><path d="M56.4628 21.4951c.4701.5952.8801 1.1209 1.0001 1.2796a27.7402 27.7402 0 0 1 1.8301 2.9758 6.1672 6.1672 0 0 1-.8601 1.7656c-.44.4266-1.35.7142-1.5-.5753-.15-1.2895-.21-2.1425-.21-2.1425s-1.9301-3.4024-2.6502-3.442c-.72-.0397-5.8303 3.442-7.1803 4.9596-1.1701 1.2796-1.4001 1.1903-1.4001 3.442 0 1.4879.17 6.5963.13 11.1394 1.8101.1984 4.4702.6943 5.2703 1.8648 0 0-.29-7.1221 7.8104-3.3924 0 0 .28-9.711 11.4605-7.2212-3.8007-4.4262-8.46-8.0491-13.7007-10.6534ZM45.9323 19.1938a89.0151 89.0151 0 0 0-1.4001-16.3966s-.15-1.2895-.87-.238a14.0568 14.0568 0 0 0-1.2001 3.9677 71.461 71.461 0 0 0-12.8206.3373c-.8201-2.7279-2.2201-3.9678-2.8902-3.6404-.67.3273-.75 3.2535-.75 3.2535l-.33 14.0457a143.9416 143.9416 0 0 1 20.261-1.3292Z" fill="#F06351"/><path d="M45.3515 46.7397c.13-1.0613.2-2.4699.24-4.0272l-8.15 2.1525a64.4337 64.4337 0 0 1-7.8 1.7557l1.11 4.9597c0 .1091 0 .2182.07.3273a32.398 32.398 0 0 0 4.76 2.5294 42.4836 42.4836 0 0 0 6.88-4.0967V50.4a15.1153 15.1153 0 0 0 2.89-3.6603Z" fill="#E55645"/><path d="M32.0016 16.0891c-.05-.0992 1 .6745 1.41.9126.41.238.61.4166.61.5852 0 .1687-.26.3373-.62.3373s-.92-.1191-1-.2579c-.08-.1389.6 0 .94 0h.29a8.0518 8.0518 0 0 1-1.63-1.5772ZM39.502 16.1982s-1 1.2697-1.09 1.3292c-.09.0595-.1701.3373.1899.2877a8.1458 8.1458 0 0 0 1.22-.2778c.11-.0595.0701-.1984-.1199-.1785-.19.0198-.68.0496-1 .1091l.8499-1.2598s.0301-.119-.0499-.0099ZM36.3617 22.2589a2.2928 2.2928 0 0 0 1.09-.9919c.28-.6547 0-.9027-.44-.992a2.467 2.467 0 0 0-1.75.3373c-.39.367-.34.7241 0 .9919a5.1702 5.1702 0 0 0 1.1.6547Z" fill="#000"/><path d="M36.0016 23.5087a2.0353 2.0353 0 0 1-.46.5952 1.7381 1.7381 0 0 1-1 .3769 2.1928 2.1928 0 0 1-1.54-.4364 1.995 1.995 0 0 1-.53-.4464 1.0023 1.0023 0 0 0-.36-.248s.75 4.0769 2.57 4.7315c1.82.6547 2.16-.7538 2.21-1.1308a5.5492 5.5492 0 0 0-.82-3.2138c0-.2976-.02-.0992-.07-.2282Z" fill="#F06351"/><path d="M34.3015 24.6395a3.5176 3.5176 0 0 1-1.3214-.4706 3.4902 3.4902 0 0 1-1.0286-.9478.1482.1482 0 0 1 0-.1984.1403.1403 0 0 1 .2 0c.2475.3444.5614.6366.9236.8596a3.2354 3.2354 0 0 0 1.1864.4398 2.121 2.121 0 0 0 .9404-.3001 2.1007 2.1007 0 0 0 .6996-.6918l.14-.1885.1.2183s.38.7538 1 .7935c.62.0397 1.06-.4166 1.63-1.2796a.1451.1451 0 0 1 .2-.0397.1422.1422 0 0 1 .04.1984c-.6666.9721-1.2966 1.4383-1.89 1.3986a1.557 1.557 0 0 1-.6427-.2361 1.5432 1.5432 0 0 1-.4773-.488 2.2536 2.2536 0 0 1-.7438.6567 2.273 2.273 0 0 1-.9562.2757Z" fill="#000"/><path d="M36.2616 37.9909c2.0711 0 3.75-1.6654 3.75-3.7197 0-2.0544-1.6789-3.7198-3.75-3.7198s-3.75 1.6654-3.75 3.7198c0 2.0543 1.6789 3.7197 3.75 3.7197Z" fill="#FDC305"/><path d="m41.2316 31.2458-3.13 1.2994 1.15-5.5845-7.5 9.6812 3.13-1.2994-1.15 5.5945 7.5-9.6912Zm-7.39 3.7991 4.16-5.3663-.81 3.9677 2-.8134-4.19 5.3763.81-3.9678-1.97.8035ZM32.4415 33.5868c.6186 0 1.12-.4974 1.12-1.111 0-.6136-.5014-1.111-1.12-1.111-.6185 0-1.12.4974-1.12 1.111 0 .6136.5015 1.111 1.12 1.111ZM38.9619 37.614c.4363 0 .79-.3509.79-.7836 0-.4328-.3537-.7837-.79-.7837s-.79.3509-.79.7837c0 .4327.3537.7836.79.7836ZM39.9219 35.4615c.1933 0 .35-.1554.35-.3472 0-.1917-.1567-.3471-.35-.3471-.1933 0-.35.1554-.35.3471 0 .1918.1567.3472.35.3472Z" fill="#111"/><path d="M45.8822 20.9892a57.2188 57.2188 0 0 0-5.0902 5.168 31.7894 31.7894 0 0 1-5.3103 4.8605c-.22-.5258-1.6301-1.5078-1.6301-1.5078s-3.1401-2.1326-5.2002-3.809a31.7806 31.7806 0 0 1-3.1402-2.9758l-2.0001-.1091c2.8872 4.1831 7.1169 7.2737 12.0006 8.7687.86-.1389 3.2802-1.8549 5.0903-3.2536a57.4398 57.4398 0 0 0 6.0002-5.8623 6.3138 6.3138 0 0 0 1.1401-1.9838c-1.14.3769-1.8601.7042-1.8601.7042Z" fill="#F06351"/><path d="m65.2227 3.4718-8.46 9.3638-1.22-1.974L63.6927 0l1.53 3.4718ZM62.6531 17.1207l5.54-4.0768-.78-3.7098-5.4 4.7711.64 3.0155ZM59.923 48.9716l6.13 3.1543 3.01-2.3211-6.69-2.7278-2.45 1.8946ZM1.95 5.9218 5.02 2.589l9.29 8.9274-1.22 2.2616-11.14-7.856ZM7.38 16.1486l-4.7-3.1047-2.4 3.8387 5.15 2.3807 1.95-3.1147ZM13.91 52.1259l-4.55 3.323L12.16 59l4.02-3.9876-2.27-2.8865Z" fill="#FDC305"/><path d="M25.9313 27.774s-3.8102-1.4283-5.2103-1.8152a3.7881 3.7881 0 0 0-2.0921-.2673 3.7743 3.7743 0 0 0-1.9081.8922 5.0322 5.0322 0 0 0-1.2847 1.7224 4.9938 4.9938 0 0 0-.4454 2.0966c.2114.461.3724.9432.4801 1.4383.05.4761-1.2001.4265-2.0001.4265-.8001 0-.9201-1.4284-.29-3.1048a22.5513 22.5513 0 0 1 1.82-3.7098C9.5505 28.27 0 34.7771 0 34.7771a46.1957 46.1957 0 0 1 8.1904.238c5.2503.5258 5.0003 4.6323 5.0003 4.6323a38.9236 38.9236 0 0 1 5.6302-1.101c2.1201-.1389 2.2701 2.1029 2.2701 2.1029l.5301 3.8288a18.248 18.248 0 0 1 2.6501-2.3409c1.2345-.9802 2.8064-1.443 4.3802-1.2895L25.9313 27.774Z" fill="#F06351"/><path d="M85.6642 41.6611a8.1738 8.1738 0 0 1-1.4-5.1482v-7.4394a8.3013 8.3013 0 0 1 1.38-5.1977c.9267-1.1837 2.51-1.7723 4.75-1.7657 2.24.0066 3.7567.5257 4.55 1.5574.9673 1.2783 1.4394 2.859 1.33 4.4537v1.7458h-4.14v-1.8946a9.8407 9.8407 0 0 0-.13-1.4879 1.6608 1.6608 0 0 0-.47-.9423 1.5647 1.5647 0 0 0-.5377-.2984 1.5713 1.5713 0 0 0-.6123-.0686 1.4708 1.4708 0 0 0-.8684.137 1.4549 1.4549 0 0 0-.6316.6069 5.386 5.386 0 0 0-.34 2.1823v9.4432a4.7074 4.7074 0 0 0 .39 2.1822c.1443.2477.3584.4482.616.5769.2576.1286.5475.1798.834.1472a1.3595 1.3595 0 0 0 .8199-.142 1.3442 1.3442 0 0 0 .5801-.592 5.7498 5.7498 0 0 0 .31-2.1723v-1.9839h4.14v1.716a7.1475 7.1475 0 0 1-1.23 4.5728c-.88 1.0912-2.4 1.6268-4.56 1.6268-2.16 0-3.85-.5952-4.78-1.8152ZM101.915 22.3978h4.74l4 20.8305h-3.94l-.71-4.6025h-3.32l-.8 4.5728h-4.0001l4.0301-20.8008Zm3.65 13.6093-1.26-8.3719-1.25 8.3719h2.51ZM113.725 25.5323h-3.24v-3.1345h10.72v3.1345h-3.2v17.6663h-4.29l.01-17.6663Z" fill="#111"/><path d="M129.616 22.3978h8.13v2.1624h-5.2v6.8741h4.22v2.0533h-4.22v7.6279h5.25v2.0831h-8.18V22.3978ZM140.157 22.3978h2l6 13.8176V22.3978h2.44v20.8305h-1.87l-6-14.2044v14.1747h-2.48l-.09-20.8008ZM153.828 22.3978h8.12v2.1624h-5.2v6.8741h4.26v2.0533h-4.22v7.6279h5.22v2.0831h-8.18V22.3978ZM164.358 22.3978h4.22c1.663-.1328 3.319.3281 4.67 1.2994 1 .863 1.49 2.2715 1.49 4.2256 0 2.6452-.863 4.262-2.59 4.8506l3 10.4252h-2.84l-2.75-9.7606h-2.27v9.7606h-2.93V22.3978Zm4 8.9273a3.8915 3.8915 0 0 0 2.7-.7538c.314-.3689.549-.7977.69-1.26.141-.4623.185-.9483.13-1.4281a5.7608 5.7608 0 0 0-.29-1.9839 1.8834 1.8834 0 0 0-.39-.6362 1.8893 1.8893 0 0 0-.61-.4351 4.7945 4.7945 0 0 0-2.05-.3472h-1.29v6.884l1.11-.0397ZM178.679 41.6611a9.1135 9.1135 0 0 1-1.27-5.3069v-6.9435a13.2692 13.2692 0 0 1 .5-3.9677c.289-.97.902-1.8133 1.74-2.3905a5.947 5.947 0 0 1 3.36-.8333 5.2982 5.2982 0 0 1 2.253.2758c.722.2536 1.38.6605 1.927 1.1923.959 1.3332 1.413 2.9599 1.28 4.5926v.7737h-2.75v-.6447a11.309 11.309 0 0 0-.18-2.3013 1.9808 1.9808 0 0 0-.76-1.2201 3.0203 3.0203 0 0 0-1.72-.4067 2.5339 2.5339 0 0 0-1.81.5555 2.5302 2.5302 0 0 0-.77 1.4681 14.4838 14.4838 0 0 0-.17 2.4699v7.7271a7.3908 7.3908 0 0 0 .59 3.4321c.271.3327.616.5994 1.007.7798a2.8499 2.8499 0 0 0 2.488-.0497c.384-.1959.717-.4762.975-.8194a7.9944 7.9944 0 0 0 .61-3.6205v-1.4681h-2.66v-2.0533h5.3v10.2963h-1.81l-.29-2.3906c-.229.7942-.723 1.4882-1.4 1.969a3.7106 3.7106 0 0 1-2.33.6795 4.698 4.698 0 0 1-2.288-.3742 4.6562 4.6562 0 0 1-1.822-1.4212ZM194.699 35.8583l-4.53-13.4605h2.72l3.21 10.0383 3.16-10.0383h2.75l-4.5 13.4605v7.3403h-2.8l-.01-7.3403Z" fill="#444"/></g><defs><clipPath id="a"><path fill="#fff" d="M0 0h202v59H0z"/></clipPath></defs></svg>